<?xml version="1.0" encoding="UTF-8" standalone="no"?>
<!-- Svg Vector Icons : http://www.onlinewebfonts.com/icon -->

<svg
   xmlns:dc="http://purl.org/dc/elements/1.1/"
   xmlns:cc="http://creativecommons.org/ns#"
   xmlns:rdf="http://www.w3.org/1999/02/22-rdf-syntax-ns#"
   xmlns:svg="http://www.w3.org/2000/svg"
   xmlns="http://www.w3.org/2000/svg"
   xmlns:xlink="http://www.w3.org/1999/xlink"
   xmlns:sodipodi="http://sodipodi.sourceforge.net/DTD/sodipodi-0.dtd"
   xmlns:inkscape="http://www.inkscape.org/namespaces/inkscape"
   version="1.1"
   x="0px"
   y="0px"
   viewBox="0 0 256 256.00001"
   enable-background="new 0 0 1000 1000"
   xml:space="preserve"
   id="svg2"
   inkscape:version="0.91 r13725"
   sodipodi:docname="webfx_on.svg"
   width="256"
   height="256"><defs
     id="defs12"><linearGradient
       id="linearGradient4184-3-6-8"
       inkscape:collect="always"><stop
         id="stop4206"
         offset="0"
         style="stop-color:#ff0000;stop-opacity:1;" /><stop
         id="stop4208"
         offset="1"
         style="stop-color:#ff00ff;stop-opacity:0" /></linearGradient><linearGradient
       inkscape:collect="always"
       xlink:href="#linearGradient4184-3-6-8"
       id="linearGradient4190"
       x1="12.867472"
       y1="889.92615"
       x2="984.26508"
       y2="-73.544296"
       gradientUnits="userSpaceOnUse" /><linearGradient
       inkscape:collect="always"
       xlink:href="#linearGradient4184-3-6-8"
       id="linearGradient4210"
       gradientUnits="userSpaceOnUse"
       x1="12.867472"
       y1="889.92615"
       x2="984.26508"
       y2="-73.544296" /></defs><sodipodi:namedview
     pagecolor="#ffffff"
     bordercolor="#666666"
     borderopacity="1"
     objecttolerance="10"
     gridtolerance="10"
     guidetolerance="10"
     inkscape:pageopacity="0"
     inkscape:pageshadow="2"
     inkscape:window-width="880"
     inkscape:window-height="580"
     id="namedview10"
     showgrid="false"
     fit-margin-top="0"
     fit-margin-left="0"
     fit-margin-right="0"
     fit-margin-bottom="0"
     inkscape:zoom="1.3350176"
     inkscape:cx="135.88597"
     inkscape:cy="101.97865"
     inkscape:window-x="2107"
     inkscape:window-y="75"
     inkscape:window-maximized="0"
     inkscape:current-layer="svg2" /><metadata
     id="metadata4"> Svg Vector Icons : http://www.onlinewebfonts.com/icon <rdf:RDF><cc:Work
     rdf:about=""><dc:format>image/svg+xml</dc:format><dc:type
       rdf:resource="http://purl.org/dc/dcmitype/StillImage" /><dc:title></dc:title></cc:Work></rdf:RDF></metadata><g
     id="g6"
     transform="matrix(0.26122449,0,0,0.26122449,-2.6122449,-2.579591)"
     style="fill:url(#linearGradient4190);fill-opacity:1;stroke:none;stroke-opacity:1"><path
       d="m 594.9,485.4 -554.3,0 C 23.7,485.4 10,499.1 10,516 l 0,351.4 c 0,16.9 13.7,30.6 30.6,30.6 l 554.3,0 c 16.9,0 30.6,-13.7 30.6,-30.6 l 0,-351.3 c 0.1,-17 -13.7,-30.7 -30.6,-30.7 z m -30.6,351.5 -493.1,0 0,-290.2 493.1,0 0,290.2 z M 978.2,548.3 c -7.4,-5.8 -17.1,-7.9 -26.2,-5.6 l -246.8,61.2 c -13.7,3.4 -23.3,15.6 -23.3,29.7 l 0,118.4 c 0,14.2 9.7,26.5 23.5,29.8 L 952.2,841 c 2.4,0.6 4.8,0.8 7.1,0.8 6.8,0 13.5,-2.3 19,-6.6 7.4,-5.8 11.7,-14.7 11.7,-24 l 0,-238.8 c 0,-9.4 -4.3,-18.3 -11.8,-24.1 z m -49.4,224 -185.5,-44.5 0,-70.3 185.5,-46 0,160.8 z M 142.4,421.4 c 64.6,0 117.2,-51 117.2,-113.6 0,-62.7 -52.6,-113.6 -117.2,-113.6 -64.6,0 -117.2,51 -117.2,113.6 0,62.6 52.5,113.6 117.2,113.6 z m 0,-166 c 30.8,0 55.9,23.5 55.9,52.4 0,28.9 -25.1,52.4 -55.9,52.4 -30.8,0 -55.9,-23.5 -55.9,-52.4 0,-28.9 25,-52.4 55.9,-52.4 z M 463.8,101.9 c -91.1,0 -165.3,71.7 -165.3,159.8 0,88.1 74.1,159.8 165.3,159.8 91.1,0 165.2,-71.7 165.2,-159.8 0,-88.2 -74.1,-159.8 -165.2,-159.8 z m 0,258.3 c -57.3,0 -104,-44.2 -104,-98.5 0,-54.3 46.7,-98.5 104,-98.5 57.3,0 104,44.2 104,98.5 0,54.3 -46.7,98.5 -104,98.5 z"
       id="path8"
       inkscape:connector-curvature="0"
       style="fill:url(#linearGradient4210);fill-opacity:1;stroke:none;stroke-opacity:1" /></g></svg>